<svg width="48" height="48" viewBox="0 0 48 48" fill="none" xmlns="http://www.w3.org/2000/svg">
<path d="M24 21.3327C24 22.0399 24.281 22.7182 24.781 23.2183C25.2811 23.7184 25.9594 23.9993 26.6667 23.9993C27.3739 23.9993 28.0522 23.7184 28.5523 23.2183C29.0524 22.7182 29.3333 22.0399 29.3333 21.3327C29.3333 20.6254 29.0524 19.9472 28.5523 19.4471C28.0522 18.947 27.3739 18.666 26.6667 18.666C25.9594 18.666 25.2811 18.947 24.781 19.4471C24.281 19.9472 24 20.6254 24 21.3327Z" stroke="#0A3A67" stroke-opacity="0.6" stroke-width="2" stroke-linecap="round" stroke-linejoin="round"/>
<path d="M36 24C36 25.5759 35.6896 27.1363 35.0866 28.5922C34.4835 30.0481 33.5996 31.371 32.4853 32.4853C31.371 33.5996 30.0481 34.4835 28.5922 35.0866C27.1363 35.6896 25.5759 36 24 36C22.4241 36 20.8637 35.6896 19.4078 35.0866C17.9519 34.4835 16.629 33.5996 15.5147 32.4853C14.4004 31.371 13.5165 30.0481 12.9134 28.5922C12.3104 27.1363 12 25.5759 12 24C12 20.8174 13.2643 17.7652 15.5147 15.5147C17.7652 13.2643 20.8174 12 24 12C27.1826 12 30.2348 13.2643 32.4853 15.5147C34.7357 17.7652 36 20.8174 36 24Z" stroke="#0A3A67" stroke-opacity="0.6" stroke-width="2" stroke-linecap="round" stroke-linejoin="round"/>
<path d="M24.6654 23.332L19.332 28.6654L21.332 30.6654" stroke="#0A3A67" stroke-opacity="0.6" stroke-width="2" stroke-linecap="round" stroke-linejoin="round"/>
<path d="M24 28L22 26" stroke="#0A3A67" stroke-opacity="0.6" stroke-width="2" stroke-linecap="round" stroke-linejoin="round"/>
</svg>
