<svg width="48" height="48" viewBox="0 0 48 48" fill="none" xmlns="http://www.w3.org/2000/svg">
<path d="M28.9412 19.8035L36 12.7383M28.9412 19.8035V14.1513M28.9412 19.8035L34.5882 19.8034M14.8235 12.7383H20.4706L23.2941 19.8035L19.7647 21.9231C21.2766 24.9915 23.7578 27.475 26.8235 28.9883L28.9412 25.4557L36 28.2818V33.934C36 34.6835 35.7025 35.4023 35.173 35.9323C34.6435 36.4623 33.9253 36.76 33.1765 36.76C27.6696 36.4251 22.4755 34.0844 18.5743 30.1797C14.6732 26.275 12.3347 21.0763 12 15.5644C12 14.8148 12.2975 14.096 12.827 13.566C13.3565 13.036 14.0747 12.7383 14.8235 12.7383Z" stroke="#0A3A67" stroke-opacity="0.6" stroke-width="2" stroke-linecap="round" stroke-linejoin="round"/>
</svg>
