<svg width="48" height="49" viewBox="0 0 48 49" fill="none" xmlns="http://www.w3.org/2000/svg">
<rect x="1" y="0.171875" width="45.8537" height="48.0435" rx="10" fill="#0A3A67" fill-opacity="0.1"/>
<path d="M19.1041 25.9599C20.7961 25.9599 22.1522 27.3304 22.1522 29.036V33.1305C22.1522 34.8241 20.7961 36.2054 19.1041 36.2054H15.048C13.368 36.2054 12 34.8241 12 33.1305V29.036C12 27.3304 13.368 25.9599 15.048 25.9599H19.1041ZM32.9524 25.9599C34.6325 25.9599 36.0005 27.3304 36.0005 29.036V33.1305C36.0005 34.8241 34.6325 36.2054 32.9524 36.2054H28.8964C27.2043 36.2054 25.8483 34.8241 25.8483 33.1305V29.036C25.8483 27.3304 27.2043 25.9599 28.8964 25.9599H32.9524ZM19.1041 12.1836C20.7961 12.1836 22.1522 13.5649 22.1522 15.2596V19.3542C22.1522 21.0598 20.7961 22.429 19.1041 22.429H15.048C13.368 22.429 12 21.0598 12 19.3542V15.2596C12 13.5649 13.368 12.1836 15.048 12.1836H19.1041ZM32.9524 12.1836C34.6325 12.1836 36.0005 13.5649 36.0005 15.2596V19.3542C36.0005 21.0598 34.6325 22.429 32.9524 22.429H28.8964C27.2043 22.429 25.8483 21.0598 25.8483 19.3542V15.2596C25.8483 13.5649 27.2043 12.1836 28.8964 12.1836H32.9524Z" fill="#0A3A67"/>
</svg>
