<svg width="48" height="48" viewBox="0 0 48 48" fill="none" xmlns="http://www.w3.org/2000/svg">
<path d="M27.8758 24.419V24.4314M17.4829 19.6126C17.0028 19.1226 16.6675 18.5092 16.514 17.8404C16.3604 17.1716 16.3946 16.4733 16.6128 15.8227C16.8309 15.1721 17.2245 14.5946 17.7501 14.1539C18.2757 13.7132 18.9128 13.4266 19.591 13.3256C20.2692 13.2247 20.9621 13.3134 21.593 13.582C22.224 13.8505 22.7685 14.2885 23.1663 14.8474C23.5641 15.4063 23.7998 16.0645 23.8473 16.7491C23.8948 17.4337 23.7523 18.1181 23.4354 18.7267M29.1154 15.7345V20.4524C30.6493 21.3408 31.8172 22.7468 32.4098 24.4185H34.0719C34.4007 24.4185 34.7159 24.5492 34.9484 24.7819C35.1808 25.0145 35.3114 25.3301 35.3114 25.6591V28.1402C35.3114 28.4693 35.1808 28.7848 34.9484 29.0175C34.7159 29.2501 34.4007 29.3808 34.0719 29.3808H32.4086C31.9921 30.5594 31.2844 31.6139 30.3536 32.4488V34.9634C30.3536 35.457 30.1577 35.9303 29.809 36.2793C29.4604 36.6282 28.9875 36.8243 28.4944 36.8243C28.0013 36.8243 27.5284 36.6282 27.1798 36.2793C26.8311 35.9303 26.6352 35.457 26.6352 34.9634V34.2402C26.2256 34.3088 25.811 34.3433 25.3958 34.3431H20.4379C20.0226 34.3433 19.6081 34.3088 19.1985 34.2402V34.9634C19.1985 35.457 19.0026 35.9303 18.6539 36.2793C18.3053 36.6282 17.8324 36.8243 17.3393 36.8243C16.8462 36.8243 16.3733 36.6282 16.0247 36.2793C15.676 35.9303 15.4801 35.457 15.4801 34.9634V32.4488C14.3571 31.4439 13.5655 30.1213 13.21 28.6562C12.8546 27.191 12.952 25.6524 13.4895 24.2439C14.0269 22.8354 14.9791 21.6234 16.2199 20.7685C17.4606 19.9136 18.9316 19.456 20.4379 19.4562H23.5366L29.1141 15.7345H29.1154Z" stroke="#0A3A67" stroke-opacity="0.6" stroke-width="2" stroke-linecap="round" stroke-linejoin="round"/>
</svg>
