<svg width="48" height="48" viewBox="0 0 48 48" fill="none" xmlns="http://www.w3.org/2000/svg">
<path d="M18.4999 36V34.5C18.4999 33.7044 18.816 32.9413 19.3786 32.3787C19.9412 31.8161 20.7042 31.5 21.4999 31.5H27.4999C28.2955 31.5 29.0586 31.8161 29.6212 32.3787C30.1838 32.9413 30.4999 33.7044 30.4999 34.5V36M26.0002 23.8125V22.3125C26.0002 21.5168 26.3163 20.7538 26.8789 20.1912C27.4415 19.6286 28.2046 19.3125 29.0002 19.3125H35.0002C35.7958 19.3125 36.5589 19.6286 37.1215 20.1912C37.6841 20.7538 38.0002 21.5168 38.0002 22.3125V23.8125M11 23.8125V22.3125C11 21.5168 11.3161 20.7538 11.8787 20.1912C12.4413 19.6286 13.2044 19.3125 14 19.3125H20C20.7956 19.3125 21.5587 19.6286 22.1213 20.1912C22.6839 20.7538 23 21.5168 23 22.3125V23.8125M21.5003 27.0003C21.5003 27.7959 21.8164 28.559 22.379 29.1216C22.9416 29.6842 23.7047 30.0003 24.5003 30.0003C25.296 30.0003 26.059 29.6842 26.6217 29.1216C27.1843 28.559 27.5003 27.7959 27.5003 27.0003C27.5003 26.2046 27.1843 25.4416 26.6217 24.8789C26.059 24.3163 25.296 24.0003 24.5003 24.0003C23.7047 24.0003 22.9416 24.3163 22.379 24.8789C21.8164 25.4416 21.5003 26.2046 21.5003 27.0003ZM29.0002 15C29.0002 15.7956 29.3163 16.5587 29.8789 17.1213C30.4415 17.6839 31.2045 18 32.0002 18C32.7958 18 33.5589 17.6839 34.1215 17.1213C34.6841 16.5587 35.0002 15.7956 35.0002 15C35.0002 14.2044 34.6841 13.4413 34.1215 12.8787C33.5589 12.3161 32.7958 12 32.0002 12C31.2045 12 30.4415 12.3161 29.8789 12.8787C29.3163 13.4413 29.0002 14.2044 29.0002 15ZM14.0001 15C14.0001 15.7956 14.3161 16.5587 14.8787 17.1213C15.4414 17.6839 16.2044 18 17.0001 18C17.7957 18 18.5588 17.6839 19.1214 17.1213C19.684 16.5587 20.0001 15.7956 20.0001 15C20.0001 14.2044 19.684 13.4413 19.1214 12.8787C18.5588 12.3161 17.7957 12 17.0001 12C16.2044 12 15.4414 12.3161 14.8787 12.8787C14.3161 13.4413 14.0001 14.2044 14.0001 15Z" stroke="#0A3A67" stroke-opacity="0.6" stroke-width="2" stroke-linecap="round" stroke-linejoin="round"/>
</svg>
