<svg width="48" height="48" viewBox="0 0 48 48" fill="none" xmlns="http://www.w3.org/2000/svg">
<path d="M30.5 33C31.2956 33 32.0587 33.3161 32.6213 33.8787C33.1839 34.4413 33.5 35.2044 33.5 36C33.5 35.2044 33.8161 34.4413 34.3787 33.8787C34.9413 33.3161 35.7044 33 36.5 33C35.7044 33 34.9413 32.6839 34.3787 32.1213C33.8161 31.5587 33.5 30.7956 33.5 30C33.5 30.7956 33.1839 31.5587 32.6213 32.1213C32.0587 32.6839 31.2956 33 30.5 33ZM30.5 15C31.2956 15 32.0587 15.3161 32.6213 15.8787C33.1839 16.4413 33.5 17.2044 33.5 18C33.5 17.2044 33.8161 16.4413 34.3787 15.8787C34.9413 15.3161 35.7044 15 36.5 15C35.7044 15 34.9413 14.6839 34.3787 14.1213C33.8161 13.5587 33.5 12.7956 33.5 12C33.5 12.7956 33.1839 13.5587 32.6213 14.1213C32.0587 14.6839 31.2956 15 30.5 15ZM20 33C20 30.6131 20.9482 28.3239 22.636 26.636C24.3239 24.9482 26.6131 24 29 24C26.6131 24 24.3239 23.0518 22.636 21.364C20.9482 19.6761 20 17.3869 20 15C20 17.3869 19.0518 19.6761 17.364 21.364C15.6761 23.0518 13.3869 24 11 24C13.3869 24 15.6761 24.9482 17.364 26.636C19.0518 28.3239 20 30.6131 20 33Z" stroke="#0A3A67" stroke-opacity="0.6" stroke-width="2" stroke-linecap="round" stroke-linejoin="round"/>
</svg>
