<svg width="48" height="48" viewBox="0 0 48 48" fill="none" xmlns="http://www.w3.org/2000/svg">
<path d="M12 25.3403V19.8389C12 18.4063 12.878 17.1302 14.213 16.6246L23.7628 13.0131C25.2542 12.4473 26.8539 13.5549 26.8539 15.156V19.7305M17.4123 24.8464H25.8315M30.6906 26.7123C30.1855 27.2059 29.8968 27.9162 29.969 28.6746C30.0772 29.9747 31.2679 30.9258 32.5669 30.9258H34.8521V32.3583C34.8521 34.8502 32.8195 36.8847 30.3298 36.8847H16.5223C14.0326 36.8847 12 34.8502 12 32.3583V24.2565C12 21.7646 14.0326 19.7301 16.5223 19.7301H30.3298C32.8195 19.7301 34.8521 21.7646 34.8521 24.2565V25.9901H32.4226C31.749 25.9901 31.1356 26.2549 30.6906 26.7123ZM36.1256 27.2181V29.6981C36.1256 30.3602 35.5964 30.9019 34.9228 30.926H32.5655C31.2665 30.926 30.0758 29.9749 29.9675 28.6748C29.8954 27.9164 30.184 27.2061 30.6892 26.7126C31.1342 26.2551 31.7476 25.9903 32.4211 25.9903H34.9228C35.5964 26.0144 36.1256 26.556 36.1256 27.2181Z" stroke="#0A3A67" stroke-opacity="0.6" stroke-width="2" stroke-linecap="round" stroke-linejoin="round"/>
</svg>
